<svg width="1768" height="322" viewBox="0 0 1768 322" fill="none" xmlns="http://www.w3.org/2000/svg">
<path d="M0.718 242.964V78.836C0.718 53.5627 6.962 34.236 19.45 20.856C31.938 7.17865 50.0753 0.339983 73.862 0.339983C97.6487 0.339983 115.786 7.17865 128.274 20.856C140.762 34.236 147.006 53.5627 147.006 78.836V105.596H100.622V75.714C100.622 55.198 92.148 44.94 75.2 44.94C58.252 44.94 49.778 55.198 49.778 75.714V246.532C49.778 266.751 58.252 276.86 75.2 276.86C92.148 276.86 100.622 266.751 100.622 246.532V185.43H76.092V140.83H147.006V242.964C147.006 268.237 140.762 287.713 128.274 301.39C115.786 314.77 97.6487 321.46 73.862 321.46C50.0753 321.46 31.938 314.77 19.45 301.39C6.962 287.713 0.718 268.237 0.718 242.964ZM157.532 242.964V78.836C157.532 53.86 163.925 34.5333 176.71 20.856C189.496 7.17865 207.93 0.339983 232.014 0.339983C256.098 0.339983 274.533 7.17865 287.318 20.856C300.104 34.5333 306.496 53.86 306.496 78.836V242.964C306.496 267.94 300.104 287.267 287.318 300.944C274.533 314.621 256.098 321.46 232.014 321.46C207.93 321.46 189.496 314.621 176.71 300.944C163.925 287.267 157.532 267.94 157.532 242.964ZM257.436 246.086V75.714C257.436 55.198 248.962 44.94 232.014 44.94C215.066 44.94 206.592 55.198 206.592 75.714V246.086C206.592 266.602 215.066 276.86 232.014 276.86C248.962 276.86 257.436 266.602 257.436 246.086ZM370.895 317H321.835V4.79998H451.621V49.4H370.895V136.37H434.227V180.97H370.895V317ZM598.313 317H549.253V49.4H497.963V4.79998H649.603V49.4H598.313V317ZM650.205 242.964V78.836C650.205 53.86 656.598 34.5333 669.383 20.856C682.169 7.17865 700.603 0.339983 724.687 0.339983C748.771 0.339983 767.206 7.17865 779.991 20.856C792.777 34.5333 799.169 53.86 799.169 78.836V242.964C799.169 267.94 792.777 287.267 779.991 300.944C767.206 314.621 748.771 321.46 724.687 321.46C700.603 321.46 682.169 314.621 669.383 300.944C656.598 287.267 650.205 267.94 650.205 242.964ZM750.109 246.086V75.714C750.109 55.198 741.635 44.94 724.687 44.94C707.739 44.94 699.265 55.198 699.265 75.714V246.086C699.265 266.602 707.739 276.86 724.687 276.86C741.635 276.86 750.109 266.602 750.109 246.086ZM917.157 317H868.097V4.79998H997.883V49.4H917.157V136.37H980.489V180.97H917.157V317ZM1001.79 242.964V4.79998H1050.85V246.532C1050.85 266.751 1059.17 276.86 1075.82 276.86C1092.47 276.86 1100.8 266.751 1100.8 246.532V4.79998H1148.07V242.964C1148.07 268.237 1141.83 287.713 1129.34 301.39C1116.85 314.77 1098.72 321.46 1074.93 321.46C1051.14 321.46 1033.01 314.77 1020.52 301.39C1008.03 287.713 1001.79 268.237 1001.79 242.964ZM1252.59 317H1203.53V49.4H1152.24V4.79998H1303.88V49.4H1252.59V317ZM1308.01 242.964V4.79998H1357.07V246.532C1357.07 266.751 1365.4 276.86 1382.05 276.86C1398.7 276.86 1407.02 266.751 1407.02 246.532V4.79998H1454.3V242.964C1454.3 268.237 1448.05 287.713 1435.57 301.39C1423.08 314.77 1404.94 321.46 1381.15 321.46C1357.37 321.46 1339.23 314.77 1326.74 301.39C1314.25 287.713 1308.01 268.237 1308.01 242.964ZM1520.46 317H1471.4V4.79998H1544.1C1569.07 4.79998 1587.36 10.7466 1598.96 22.64C1610.85 34.236 1616.8 52.2246 1616.8 76.606V95.784C1616.8 128.491 1606.09 149.007 1584.68 157.332V158.224C1606.39 164.765 1617.24 186.768 1617.24 224.232V279.09C1617.24 296.038 1619.03 308.675 1622.59 317H1572.64C1569.67 308.377 1568.18 295.592 1568.18 278.644V221.556C1568.18 207.284 1565.8 197.323 1561.05 191.674C1556.59 186.025 1548.71 183.2 1537.41 183.2H1520.46V317ZM1520.46 49.4V138.6H1538.3C1548.41 138.6 1555.84 136.073 1560.6 131.018C1565.36 125.666 1567.74 117.192 1567.74 105.596V81.512C1567.74 60.104 1559.41 49.4 1542.76 49.4H1520.46ZM1767.24 317H1633.44V4.79998H1767.24V49.4H1682.5V131.91H1749.85V176.51H1682.5V272.4H1767.24V317Z" fill="#C2F732"/>
</svg>
