<svg width="876" height="624" viewBox="0 0 876 624" fill="none" xmlns="http://www.w3.org/2000/svg">
<path d="M0.206418 471.099V152.411C0.206418 103.338 12.3304 65.8114 36.5784 39.8314C60.8264 13.2741 96.0438 -0.00456429 142.23 -0.00456429C188.417 -0.00456429 223.634 13.2741 247.882 39.8314C272.13 65.8114 284.254 103.338 284.254 152.411V204.371H194.19V146.349C194.19 106.513 177.736 86.5955 144.828 86.5955C111.92 86.5955 95.4664 106.513 95.4664 146.349V478.027C95.4664 517.286 111.92 536.915 144.828 536.915C177.736 536.915 194.19 517.286 194.19 478.027V359.385H146.56V272.785H284.254V471.099C284.254 520.173 272.13 557.988 247.882 584.545C223.634 610.525 188.417 623.515 142.23 623.515C96.0438 623.515 60.8264 610.525 36.5784 584.545C12.3304 557.988 0.206418 520.173 0.206418 471.099ZM304.693 471.099V152.411C304.693 103.915 317.106 66.3888 341.931 39.8314C366.757 13.2741 402.551 -0.00456429 449.315 -0.00456429C496.079 -0.00456429 531.874 13.2741 556.699 39.8314C581.525 66.3888 593.937 103.915 593.937 152.411V471.099C593.937 519.595 581.525 557.122 556.699 583.679C531.874 610.237 496.079 623.515 449.315 623.515C402.551 623.515 366.757 610.237 341.931 583.679C317.106 557.122 304.693 519.595 304.693 471.099ZM498.677 477.161V146.349C498.677 106.513 482.223 86.5955 449.315 86.5955C416.407 86.5955 399.953 106.513 399.953 146.349V477.161C399.953 516.997 416.407 536.915 449.315 536.915C482.223 536.915 498.677 516.997 498.677 477.161ZM718.98 614.855H623.72V8.65543H875.726V95.2554H718.98V264.125H841.952V350.725H718.98V614.855Z" fill="#EB4EBB"/>
</svg>
