<svg width="20" height="21" viewBox="0 0 20 21" fill="none" xmlns="http://www.w3.org/2000/svg">
<path fill-rule="evenodd" clip-rule="evenodd" d="M5 0.126953C2.23858 0.126953 0 2.36553 0 5.12695V15.127C0 17.8884 2.23858 20.127 5 20.127H15C17.7614 20.127 20 17.8884 20 15.127V5.12695C20 2.36553 17.7614 0.126953 15 0.126953H5ZM15.911 5.12734C16.627 5.12734 17.2074 4.54691 17.2074 3.83092C17.2074 3.11493 16.627 2.53451 15.911 2.53451C15.195 2.53451 14.6146 3.11493 14.6146 3.83092C14.6146 4.54691 15.195 5.12734 15.911 5.12734ZM10 5.12695C8.67392 5.12695 7.40215 5.65374 6.46447 6.59142C5.52678 7.5291 5 8.80087 5 10.127C5 11.453 5.52678 12.7248 6.46447 13.6625C7.40215 14.6002 8.67392 15.127 10 15.127C11.3261 15.127 12.5979 14.6002 13.5355 13.6625C14.4732 12.7248 15 11.453 15 10.127C15 8.80087 14.4732 7.5291 13.5355 6.59142C12.5979 5.65374 11.3261 5.12695 10 5.12695ZM10 13.3741C9.1385 13.3741 8.31229 13.0319 7.70313 12.4227C7.09396 11.8136 6.75173 10.9874 6.75173 10.1259C6.75173 9.26438 7.09396 8.43817 7.70313 7.829C8.31229 7.21983 9.1385 6.8776 10 6.8776C10.8615 6.8776 11.6877 7.21983 12.2969 7.829C12.906 8.43817 13.2483 9.26438 13.2483 10.1259C13.2483 10.9874 12.906 11.8136 12.2969 12.4227C11.6877 13.0319 10.8615 13.3741 10 13.3741Z" fill="#FE01B3"/>
</svg>
