<svg width="22" height="22" viewBox="0 0 22 22" fill="none" xmlns="http://www.w3.org/2000/svg">
<path d="M13.2168 5.03195C12.7805 4.95134 12.3797 5.22982 12.2966 5.65578C12.2135 6.08173 12.4929 6.49761 12.9174 6.58097C14.1955 6.83014 15.1823 7.81946 15.4325 9.10191V9.10282C15.5037 9.47199 15.8287 9.74039 16.203 9.74039C16.2532 9.74039 16.3034 9.73581 16.3545 9.72665C16.779 9.64145 17.0583 9.22649 16.9753 8.79962C16.6019 6.88418 15.1275 5.40478 13.2168 5.03195" fill="black"/>
<path d="M13.1598 1.84028C12.9553 1.81096 12.7499 1.87142 12.5864 2.0015C12.4185 2.13341 12.3135 2.32394 12.2907 2.53738C12.2423 2.96884 12.5536 3.35907 12.9845 3.40762C15.956 3.73922 18.2657 6.05405 18.5998 9.03484C18.6445 9.43423 18.9796 9.7356 19.3794 9.7356C19.4095 9.7356 19.4387 9.73377 19.4689 9.73011C19.6779 9.70721 19.8642 9.6037 19.9956 9.43881C20.1262 9.27392 20.1855 9.06873 20.1618 8.85896C19.7455 5.13984 16.8671 2.25341 13.1598 1.84028" fill="black"/>
<path fill-rule="evenodd" clip-rule="evenodd" d="M10.1124 11.8909C13.7691 15.5465 14.5986 11.3173 16.9268 13.6439C19.1714 15.8879 20.4615 16.3374 17.6176 19.1805C17.2614 19.4668 14.9981 22.9109 7.0442 14.9592C-0.910709 7.00651 2.53143 4.74092 2.81779 4.3848C5.66852 1.53387 6.11035 2.83145 8.35493 5.0754C10.6831 7.40297 6.45575 8.23522 10.1124 11.8909Z" fill="black"/>
</svg>
