<svg width="24" height="21" viewBox="0 0 24 21" fill="none" xmlns="http://www.w3.org/2000/svg">
<path d="M1.44496 8.837C1.44496 8.837 11.8689 4.44663 15.4841 2.90067C16.8699 2.28234 21.5697 0.303501 21.5697 0.303501C21.5697 0.303501 23.7389 -0.562164 23.5581 1.54025C23.4978 2.406 23.0158 5.43596 22.5338 8.71333C21.8107 13.3511 21.0274 18.4217 21.0274 18.4217C21.0274 18.4217 20.9069 19.844 19.8826 20.0913C18.8583 20.3387 17.1711 19.2257 16.8699 18.9783C16.6289 18.7928 12.3509 16.0101 10.7843 14.6497C10.3625 14.2787 9.8805 13.5367 10.8445 12.6709C13.0137 10.6303 15.6046 8.095 17.1711 6.48725C17.8942 5.74517 18.6172 4.01375 15.6046 6.11617C11.3266 9.14621 7.10882 11.9907 7.10882 11.9907C7.10882 11.9907 6.14473 12.609 4.33714 12.0525C2.52947 11.496 0.420584 10.754 0.420584 10.754C0.420584 10.754 -1.02542 9.82642 1.44496 8.837Z" fill="#29A9EA"/>
</svg>
