<svg width="21" height="21" viewBox="0 0 21 21" fill="none" xmlns="http://www.w3.org/2000/svg">
<path d="M0.568787 20.127L2.00247 14.7962C0.84624 12.7196 0.478895 10.2964 0.96784 7.97119C1.45679 5.64602 2.76922 3.57486 4.66432 2.13777C6.55942 0.700687 8.91006 -0.00592599 11.2849 0.147598C13.6597 0.301122 15.8994 1.30448 17.5931 2.97357C19.2867 4.64265 20.3206 6.86549 20.5051 9.2342C20.6896 11.6029 20.0123 13.9586 18.5975 15.869C17.1826 17.7794 15.1252 19.1163 12.8027 19.6345C10.4802 20.1527 8.04839 19.8174 5.95355 18.69L0.568787 20.127ZM6.2132 16.6952L6.54622 16.8924C8.06355 17.7903 9.83577 18.1619 11.5867 17.9492C13.3376 17.7365 14.9689 16.9516 16.2264 15.7167C17.4838 14.4818 18.2967 12.8664 18.5385 11.1221C18.7803 9.37775 18.4373 7.6026 17.563 6.07323C16.6887 4.54385 15.3322 3.34617 13.7049 2.66682C12.0776 1.98747 10.2709 1.86462 8.56637 2.3174C6.86183 2.77018 5.3552 3.77317 4.28125 5.17006C3.2073 6.56696 2.62638 8.27928 2.629 10.0402C2.62757 11.5003 3.03204 12.9321 3.79739 14.1763L4.00623 14.5201L3.20473 17.4954L6.2132 16.6952Z" fill="#42EA61"/>
<path fill-rule="evenodd" clip-rule="evenodd" d="M14.2958 11.4085C14.1006 11.2513 13.872 11.1407 13.6275 11.085C13.383 11.0294 13.1289 11.0302 12.8847 11.0873C12.5178 11.2395 12.2808 11.8143 12.0437 12.1016C11.9937 12.1705 11.9203 12.2189 11.8371 12.2375C11.754 12.2562 11.6669 12.244 11.5922 12.2031C10.249 11.6779 9.12311 10.7147 8.39743 9.47007C8.33553 9.3924 8.30624 9.29379 8.31571 9.19499C8.32519 9.09619 8.3727 9.00491 8.44823 8.94038C8.71264 8.67906 8.90677 8.3554 9.01267 7.99932C9.03619 7.60657 8.94606 7.21535 8.75303 6.87231C8.6038 6.39139 8.3198 5.96317 7.93459 5.63824C7.7359 5.54902 7.51561 5.51911 7.30028 5.55211C7.08495 5.5851 6.88378 5.6796 6.72104 5.82419C6.43852 6.06754 6.21427 6.37105 6.06482 6.71238C5.91536 7.05371 5.84449 7.42417 5.85745 7.79646C5.85832 8.00553 5.88486 8.2137 5.93647 8.41632C6.06753 8.90313 6.2691 9.36823 6.53477 9.79691C6.72646 10.1253 6.9356 10.4432 7.1613 10.7492C7.89482 11.7545 8.81687 12.6081 9.87626 13.2625C10.4079 13.595 10.9761 13.8654 11.5696 14.0683C12.1861 14.3473 12.8669 14.4544 13.5395 14.3782C13.9227 14.3203 14.2858 14.1692 14.5968 13.9383C14.9079 13.7074 15.1573 13.4037 15.3231 13.054C15.4206 12.8427 15.4501 12.6065 15.4078 12.3778C15.3062 11.9101 14.6797 11.6339 14.2958 11.4085Z" fill="#42EA61"/>
</svg>
