<svg width="110" height="56" viewBox="0 0 110 56" fill="none" xmlns="http://www.w3.org/2000/svg">
<path d="M79.6047 16.1094L80.4401 18.0677C80.8134 19.1166 81.1488 20.1786 81.4472 21.2555C81.4921 21.4192 81.526 21.5849 81.55 21.7525C81.5969 22.0899 81.7177 22.4053 81.7526 22.7506C81.7885 23.1029 81.9153 23.4273 81.9442 23.6978C81.9871 24.112 82.0341 24.4623 82.085 24.7507C82.1508 25.121 82.1868 25.4204 82.1927 25.648C82.2247 26.8926 82.2297 28.1382 82.2067 29.3828C82.1957 29.9726 82.1448 30.5715 82.056 31.1813C81.9183 32.1175 81.8105 32.7842 81.7336 33.1804C80.1766 41.177 75.1703 48.0018 68.092 51.9731C67.5161 52.2965 66.9223 52.5959 66.3124 52.8724C63.2464 54.2627 60.0535 55.1081 56.735 55.4085C54.9624 55.5692 53.1539 55.5183 51.3084 55.2558C50.7725 55.1789 50.1567 55.0382 49.5768 54.9354C49.0169 54.8356 48.5857 54.7488 48.2843 54.6739C42.4226 53.2257 37.5231 50.1956 33.5877 45.5825L31.7762 43.1771C30.6065 41.4295 29.6194 39.4703 28.8149 37.2985C28.6542 36.8663 28.5275 36.4861 28.4347 36.1587C28.238 35.472 28.1392 35.1257 28.1382 35.1207C27.9157 34.4061 27.7799 33.8382 27.729 33.417C27.6961 33.1435 27.6572 32.909 27.6103 32.7143C27.5464 32.4479 27.5104 32.2403 27.5035 32.0925C27.4885 31.7891 27.5005 31.5656 27.4076 31.2562C27.3228 30.9757 27.2789 30.6723 27.2769 30.3479C27.2639 28.3089 27.2659 26.6211 27.2829 25.2847C27.2869 24.8945 27.4935 24.588 27.4795 24.2028C27.4675 23.8565 27.5104 23.5181 27.6073 23.1878C27.7001 22.8724 27.715 22.6258 27.744 22.3144C27.8208 22.1318 27.8787 21.9312 27.9177 21.7126C27.9755 21.3932 28.0165 21.1896 28.0394 21.1018C28.5185 19.3242 29.1443 17.6026 29.9178 15.9348C30.9747 13.8069 32.2663 11.8327 33.7933 10.0132C34.1456 9.59403 35.0569 8.6788 36.526 7.26853C36.7236 7.07889 36.9911 6.85932 37.3295 6.6088C37.7047 6.33034 38.0611 5.99599 38.4164 5.74447C41.3158 3.68845 44.4487 2.13645 47.8551 1.29807C48.6845 1.09346 49.6017 0.904827 50.6048 0.730165C51.5101 0.571471 52.4552 0.580454 53.3924 0.529553C54.2168 0.48464 55.3476 0.490628 56.7859 0.549514C57.4955 0.578458 58.1472 0.636347 58.7411 0.723179C59.1932 0.79005 59.835 0.911815 60.6654 1.08847C63.0657 1.60048 65.3533 2.42888 67.5281 3.57567C68.0142 3.83217 68.5621 4.17351 69.14 4.50886C70.1909 5.11868 71.2569 5.87722 72.3388 6.78546C72.75 7.13079 73.2371 7.58392 73.8 8.14483C74.5106 8.85446 75.2641 9.56409 75.878 10.3067C77.3531 12.0912 78.5957 14.0255 79.6047 16.1094ZM36.8145 33.914C36.8524 34.0468 36.8953 34.1765 36.9432 34.3053C37.9553 37.017 39.5911 39.6649 41.7619 41.6042C41.9705 41.8337 42.1761 42.0583 42.4326 42.2479C42.9805 42.6541 43.5235 43.0663 44.0635 43.4835C44.1932 43.5843 44.3419 43.6801 44.5106 43.771C44.9048 43.9826 45.3749 44.292 45.6634 44.4497C47.4489 45.4208 49.3432 46.0935 51.3444 46.4678C51.7097 46.5366 52.1558 46.5766 52.563 46.6444C52.9014 46.7013 53.2068 46.7313 53.4792 46.7362C54.9764 46.7612 55.9285 46.7582 56.3367 46.7283C56.9875 46.6793 57.8398 46.5366 58.8948 46.2981C60.2402 45.9947 61.4478 45.5565 62.6765 45.0046C63.4939 44.6363 64.3442 44.1492 65.2265 43.5414C66.2376 42.8458 66.8614 42.3976 67.0989 42.197C67.4043 41.9375 68.0271 41.3117 68.9663 40.3206C69.1929 40.0811 69.6111 39.5232 70.2199 38.6479C70.66 38.0151 71.0134 37.4522 71.2788 36.9581C72.1512 35.3383 72.7929 33.6266 73.2051 31.8231C73.277 31.5077 73.28 31.1134 73.3848 30.7571C73.4486 30.5395 73.4836 30.3539 73.4886 30.1992C73.5365 28.6632 73.5305 27.1281 73.4716 25.5931C73.4656 25.4324 73.4307 25.2218 73.3658 24.9613C73.3129 24.7487 73.268 24.4942 73.2311 24.1968C73.1832 23.8165 73.0494 23.3105 72.8308 22.6777C71.8617 19.2224 69.8296 16.0665 67.1059 13.734C64.1706 11.184 60.4528 9.54812 56.5713 9.18981C55.8776 9.12494 55.0752 9.14989 54.3316 9.14091C53.6419 9.13292 53.083 9.15089 52.6548 9.19381C48.8452 9.58206 45.1124 11.2718 42.245 13.8049C39.2687 16.4338 37.2945 19.7025 36.3224 23.6099C36.2246 24.0022 36.1697 24.4503 36.0799 24.8745C36.002 25.2428 35.9551 25.5602 35.9382 25.8267C35.8473 27.2888 35.8543 28.751 35.9591 30.2132C35.9701 30.3699 36.01 30.6144 36.0769 30.9468C36.1158 31.1404 36.1567 31.3849 36.1996 31.6813C36.2655 32.1315 36.4701 32.876 36.8145 33.914Z" fill="#EB4EBB"/>
<path d="M106.32 17.8829C106.144 17.9159 105.835 17.9308 105.392 17.9288C101.341 17.9109 97.2726 17.8889 93.1855 17.864C93.1559 17.8638 93.1267 17.8708 93.1003 17.8844C93.074 17.898 93.0513 17.9177 93.0341 17.942C93.017 17.9663 93.006 17.9944 93.0019 18.0238C92.9979 18.0533 93.0009 18.0834 93.0109 18.1115C93.2304 18.7243 93.3891 19.3661 93.4869 20.0378C93.5368 20.3791 93.6736 20.7554 93.6985 21.1416C93.7115 21.3462 93.7404 21.5359 93.7864 21.7085C93.9151 22.1966 93.951 22.6956 93.8942 23.2066C93.8909 23.2359 93.8968 23.2652 93.9111 23.2905C93.994 23.4382 94.0948 23.515 94.2155 23.521C94.8753 23.554 95.9302 23.5639 97.3784 23.551L108.666 23.549C108.708 23.5489 108.75 23.5651 108.781 23.5943C108.813 23.6236 108.832 23.6637 108.835 23.7067C108.879 24.2596 109.049 24.7906 109.073 25.3325C109.099 25.9204 109.144 26.5053 109.207 27.0851V28.7379C109.194 29.8139 109.073 30.8768 108.845 31.9268C108.772 32.2621 108.693 32.2452 108.393 32.309C108.308 32.327 108.22 32.336 108.128 32.335C104.334 32.309 100.541 32.311 96.7476 32.341C96.1747 32.345 95.2485 32.311 94.494 32.349C94.1137 32.3679 93.9361 32.4877 93.9351 32.8809C93.9351 33.4598 93.7674 34.2373 93.6845 34.7343C92.9989 38.8344 91.6834 42.7229 89.7382 46.3988C89.6933 46.4826 89.6424 46.5455 89.5835 46.5884C89.4966 46.6513 89.4178 46.6833 89.3479 46.6823C88.0435 46.6763 86.725 46.6793 85.3926 46.6922L83.4783 46.6892L81.1368 46.7162L79.8323 46.7711C79.7315 46.7511 79.7046 46.6733 79.7535 46.5385C79.7724 46.4856 79.8104 46.4218 79.8663 46.3449C81.1508 44.5983 82.2427 42.7409 83.1409 40.7727C84.0033 38.8614 84.675 36.8872 85.156 34.8511C85.2848 34.2223 85.3996 33.5926 85.5024 32.9618C85.5413 32.7282 85.671 32.4867 85.6671 32.2511C85.6571 31.7451 85.703 31.2461 85.8038 30.752C85.8607 30.4766 85.8886 30.2301 85.8876 30.0135C85.8776 28.4355 85.8747 26.8576 85.8796 25.2816C85.8806 24.9513 85.695 24.7437 85.69 24.4492C85.683 23.9821 85.6281 23.522 85.5253 23.0679C85.4904 22.9122 85.4575 22.6986 85.4275 22.4281C85.3936 22.1227 85.2698 21.8592 85.2319 21.5638C85.2219 21.485 85.2089 21.4081 85.192 21.3323C84.1829 16.8389 82.2886 12.7359 79.509 9.02304C79.4984 9.00896 79.492 8.99221 79.4904 8.97467C79.4888 8.95713 79.4921 8.9395 79.5 8.92375C79.5079 8.908 79.52 8.89476 79.535 8.8855C79.5499 8.87624 79.5672 8.87134 79.5848 8.87134C83.4663 8.90128 87.3608 8.90927 91.2692 8.89429C91.7693 8.8923 92.4479 8.95617 93.3043 9.08592C93.962 9.18473 94.6138 9.32047 95.2575 9.49314C96.1458 9.73068 96.8973 9.97421 97.5112 10.2227C97.8535 10.3615 98.3655 10.606 99.0472 10.9543C99.639 11.2567 100.132 11.5362 100.527 11.7907C102.937 13.3477 104.727 15.3508 106.293 17.7362C106.314 17.7671 106.323 17.816 106.32 17.8829Z" fill="#EB4EBB"/>
<path d="M26.8258 13.9905L26.5294 14.5644C25.8038 16.1174 25.1969 17.7163 24.7099 19.3611C24.672 19.4889 24.667 19.6286 24.636 19.7514C24.6291 19.7789 24.6154 19.8043 24.5964 19.8253C24.5773 19.8463 24.5534 19.8624 24.5267 19.872C24.5 19.8817 24.4714 19.8846 24.4433 19.8807C24.4152 19.8767 24.3885 19.8659 24.3655 19.8492C23.2367 19.0278 22.0241 18.4479 20.7256 18.1085C19.7355 17.85 18.6426 17.859 17.5996 17.8989C17.1295 17.9179 16.6594 17.9848 16.1913 18.0996C15.4458 18.2842 14.8879 18.4638 14.5186 18.6395C11.4046 20.1196 9.44738 22.534 8.64693 25.8805C8.5581 26.2498 8.60202 26.646 8.54413 27.0403C8.4044 27.9854 8.5571 28.8258 8.60102 29.7251C8.613 29.9586 8.7148 30.1543 8.77269 30.3818C8.85154 30.6872 8.89445 30.8529 8.90244 30.8779C9.21483 31.855 9.67395 32.7941 10.2788 33.6964C10.5692 34.1366 10.9485 34.5857 11.4156 35.0458C12.6722 36.2974 14.1822 37.1757 15.9438 37.6797C15.9714 37.6877 16.0003 37.69 16.0288 37.6866C16.0573 37.6833 16.0849 37.6742 16.1099 37.66C16.1349 37.6457 16.1569 37.6266 16.1744 37.6038C16.192 37.581 16.2049 37.5549 16.2123 37.527C16.2612 37.3473 16.2063 37.1777 16.1185 36.989C15.9698 36.6697 15.9548 36.3183 15.865 36.0059C15.7592 35.6396 15.7552 35.2813 15.6574 34.9121C15.5326 34.441 15.6015 33.9868 15.4717 33.5317C15.2941 32.9069 15.343 32.3231 15.2392 31.7003C15.1623 31.2342 15.1224 30.6872 15.1194 30.0614C15.1124 28.4236 15.1104 26.7848 15.1134 25.1469C15.1144 24.7357 15.1643 24.3485 15.2242 23.9532C15.2841 23.3664 15.9558 23.556 16.4209 23.547L23.619 23.549C23.7338 23.549 23.7927 23.6059 23.7937 23.7207C23.8006 24.1638 23.7517 24.58 23.6469 24.9683C23.4783 25.5941 23.5751 26.3736 23.5871 27.0193C23.592 28.0583 23.597 29.0963 23.602 30.1333C23.603 30.4447 23.635 30.794 23.6968 31.1813C23.7617 31.5835 23.8096 31.9877 23.8406 32.3939C23.8675 32.7313 23.9823 33.0756 24.0212 33.4329C24.0601 33.7902 24.0991 34.0497 24.139 34.2124C24.3356 35.0049 24.5382 35.7963 24.7458 36.5858C24.9235 37.2625 25.185 37.9232 25.4185 38.5939C26.0533 40.4144 26.9286 42.182 27.8867 43.8089C28.0874 44.1502 27.6173 44.2889 27.3957 44.3997C23.2467 46.6603 18.9021 47.2991 14.3619 46.314C11.8018 45.7591 9.41445 44.6293 7.19973 42.9256C6.82545 42.6431 6.39329 42.2668 5.90323 41.7948C4.992 40.9174 4.20651 40.0571 3.54479 39.2147C1.84009 36.8872 0.715262 34.3022 0.170316 31.4587C0.115422 31.1703 0.0794911 30.821 0.0625239 30.4098C-0.00634297 28.7051 -0.0183199 27.183 0.0265933 25.8446C0.0485509 25.1649 0.150354 24.4443 0.31803 23.7267C0.665358 22.2366 1.08654 21.0998 1.55065 20.0807C3.17651 16.5086 5.66669 13.7041 9.02221 11.667C9.34857 11.4684 9.86258 11.2019 10.5632 10.8665C11.1231 10.5981 11.6571 10.3775 12.1641 10.2038C13.0464 9.9004 13.9437 9.60697 14.8709 9.47722C15.1583 9.4373 15.4478 9.33549 15.6993 9.29457C17.0856 9.06801 18.5757 8.97419 19.968 9.18279C20.514 9.26463 21.039 9.25864 21.5759 9.37941C21.9762 9.46923 22.4133 9.52812 22.7736 9.61795C23.6699 9.84052 24.5502 10.115 25.3896 10.5022C25.9385 10.7557 26.5633 10.9653 27.0324 11.2318C27.3308 11.4005 27.6093 11.5792 27.8688 11.7678C27.9153 11.8014 27.9467 11.8521 27.956 11.9087C27.9654 11.9654 27.9519 12.0234 27.9187 12.0702C27.4925 12.674 27.1282 13.3138 26.8258 13.9905Z" fill="#EB4EBB"/>
<path d="M106.453 37.2097C106.484 37.2886 106.485 37.3494 106.457 37.3914C105.666 38.595 104.776 39.7318 103.786 40.8028C102.508 42.212 101.01 43.3868 99.2927 44.326C98.2437 44.9038 97.1419 45.3859 95.9851 45.7742C95.7196 45.864 95.5609 45.9339 95.2605 45.883C95.2431 45.8799 95.2268 45.8727 95.2128 45.862C95.1989 45.8512 95.1877 45.8373 95.1804 45.8213C95.173 45.8053 95.1696 45.7877 95.1706 45.7701C95.1715 45.7525 95.1767 45.7354 95.1856 45.7203C95.3523 45.4358 95.504 45.1324 95.6388 44.808C96.6368 42.4137 97.4592 39.9035 98.107 37.2766L106.453 37.2097Z" fill="#EB4EBB"/>
</svg>
