<svg width="20" height="21" viewBox="0 0 20 21" fill="none" xmlns="http://www.w3.org/2000/svg">
<path d="M5.05786 18.1801C5.05786 17.8455 5.05786 17.5108 5.05786 17.1761C5.06024 17.1624 5.05976 17.1484 5.05645 17.1349C5.05314 17.1214 5.04707 17.1087 5.03862 17.0977C5.03016 17.0866 5.01951 17.0774 5.00731 17.0705C4.99511 17.0637 4.98162 17.0594 4.96769 17.058C4.13053 16.8223 3.35784 16.4025 2.7072 15.8298C2.23313 15.4025 1.83843 14.8961 1.54103 14.3337C1.12186 13.5211 0.842896 12.6448 0.715703 11.7411C0.55811 10.6074 0.503379 9.46198 0.552165 8.31861C0.562864 7.78556 0.590375 7.25856 0.65151 6.72551C0.74901 5.71255 1.0069 4.72112 1.41571 3.78765C1.9205 2.63992 2.83628 1.71799 3.98646 1.19961C4.76997 0.844356 5.59424 0.585005 6.44106 0.427287C7.2715 0.271435 8.11231 0.175776 8.95679 0.141073C9.71802 0.114401 10.4801 0.12552 11.2402 0.174389C12.3281 0.219888 13.4061 0.398421 14.4498 0.70593C15.2237 0.926946 15.9598 1.26127 16.6339 1.69783C17.2907 2.14459 17.822 2.74964 18.1776 3.45601C18.5957 4.28101 18.8799 5.16617 19.0197 6.07888C19.1106 6.62075 19.1703 7.16731 19.1985 7.7159C19.2383 8.39585 19.2337 9.07882 19.2077 9.75574C19.1817 10.4327 19.1237 11.0899 19.0396 11.7532C18.9333 12.7487 18.6245 13.7126 18.1317 14.5865C17.4903 15.6921 16.4629 16.527 15.2431 16.9338C14.409 17.2232 13.5478 17.4292 12.6723 17.5486C12.0319 17.6365 11.39 17.7001 10.745 17.7258C10.2513 17.7485 9.75767 17.7425 9.264 17.7349C8.9843 17.7349 8.70614 17.7076 8.42797 17.6834C8.40066 17.6783 8.37244 17.6813 8.34687 17.6921C8.3213 17.7029 8.29953 17.721 8.2843 17.744C7.72185 18.4133 7.13801 19.0645 6.54958 19.7127C6.44239 19.8309 6.31829 19.9329 6.18123 20.0155C6.09126 20.074 5.98868 20.1107 5.88176 20.1227C5.77483 20.1346 5.66657 20.1215 5.56571 20.0844C5.46485 20.0472 5.37422 19.9871 5.30114 19.9088C5.22805 19.8306 5.17456 19.7364 5.14498 19.6339C5.08674 19.4518 5.05785 19.2616 5.05939 19.0706C5.05786 18.7707 5.05786 18.4754 5.05786 18.1801ZM5.738 19.4507L5.80983 19.384L7.08604 17.9802C7.57716 17.4401 8.06778 16.8995 8.55788 16.3583C8.58197 16.3253 8.61447 16.2993 8.65207 16.2828C8.68966 16.2663 8.731 16.2599 8.77186 16.2645C8.93845 16.2811 9.10505 16.2872 9.27317 16.2887C9.85396 16.2887 10.4347 16.2887 11.0155 16.2478C11.5428 16.2069 12.0686 16.1433 12.5913 16.0615C13.1541 15.9645 13.7112 15.8376 14.2603 15.6814C15.483 15.3558 16.4291 14.6592 17.0236 13.531C17.3747 12.8374 17.5948 12.0861 17.6732 11.314C17.7661 10.5863 17.8217 9.85448 17.8398 9.12122C17.8669 8.20011 17.8034 7.27856 17.6503 6.36963C17.5441 5.71111 17.353 5.06881 17.0817 4.45851C16.7363 3.70133 16.2472 3.07439 15.4937 2.67157C14.3383 2.05371 13.088 1.7781 11.7996 1.63726C11.4343 1.59789 11.069 1.57669 10.7022 1.56306C9.95113 1.52469 9.19846 1.52874 8.44784 1.57517C7.90802 1.61487 7.37109 1.68668 6.83997 1.79021C6.05889 1.93128 5.30327 2.18646 4.59782 2.54739C4.18884 2.75214 3.8178 3.02403 3.50043 3.35152C2.98608 3.92112 2.60878 4.59888 2.39693 5.33381C2.14561 6.18974 2.00842 7.07457 1.98885 7.96577C1.93968 8.85696 1.95091 9.75042 2.02248 10.6401C2.067 11.1696 2.15648 11.6944 2.28995 12.209C2.48853 13.0109 2.87377 13.7556 3.41484 14.3836C3.999 15.0243 4.754 15.4884 5.5928 15.7223C5.69826 15.7541 5.74564 15.7905 5.74564 15.9086C5.73647 16.3447 5.74564 16.7809 5.74564 17.217L5.738 19.4507Z" fill="#815DF3"/>
<path d="M4.66845 5.92394C4.65775 5.5923 4.83963 5.35151 5.05971 5.13496C5.34999 4.85945 5.66979 4.61621 6.01343 4.40958C6.17013 4.31383 6.35645 4.27735 6.53813 4.30684C6.71981 4.33633 6.88463 4.42982 7.0023 4.5701C7.41808 5.00314 7.79022 5.47533 8.11344 5.97997C8.2735 6.20698 8.39436 6.45876 8.47109 6.72504C8.50175 6.82895 8.50374 6.9391 8.47686 7.04404C8.44998 7.14897 8.39521 7.24485 8.31825 7.32169C8.14193 7.49318 7.95401 7.65256 7.7558 7.79872C7.65593 7.87758 7.58167 7.9838 7.54227 8.10416C7.50286 8.22452 7.50005 8.35371 7.53418 8.47564C7.65658 9.04818 7.93397 9.57692 8.33659 10.0051C8.82582 10.5969 9.45616 11.0586 10.1707 11.3484C10.3462 11.4378 10.5474 11.4651 10.7407 11.4256C10.8466 11.397 10.9408 11.3361 11.0097 11.2515C11.1167 11.1167 11.2329 10.9864 11.3292 10.8426C11.4541 10.6631 11.6448 10.5391 11.8606 10.497C12.0764 10.4548 12.3004 10.4979 12.4846 10.6169C13.0027 10.9148 13.4919 11.2595 13.9458 11.6467C14.0528 11.7376 14.1643 11.8254 14.2713 11.9178C14.3979 12.0134 14.4893 12.1476 14.5316 12.2997C14.5738 12.4518 14.5645 12.6134 14.5052 12.7598C14.4107 13.0059 14.2731 13.2335 14.0986 13.4321C13.8818 13.7307 13.6056 13.9822 13.287 14.1711C13.1348 14.2597 12.9637 14.3118 12.7874 14.3231C12.6112 14.3344 12.4347 14.3047 12.2722 14.2363C11.0356 13.743 9.88019 13.0698 8.84401 12.2388C7.83054 11.4122 6.94484 10.4428 6.21518 9.36154C5.60121 8.46646 5.11276 7.49292 4.76321 6.4676C4.72599 6.34358 4.69538 6.21772 4.6715 6.09052C4.66471 6.03525 4.66369 5.97942 4.66845 5.92394V5.92394Z" fill="#815DF3"/>
<path d="M9.94521 4.31298C10.9798 4.33194 11.9749 4.71006 12.7569 5.38144C13.539 6.05282 14.0584 6.97486 14.2247 7.98682C14.2916 8.35474 14.3274 8.72756 14.3317 9.10139C14.3317 9.18922 14.3088 9.25283 14.214 9.26191C14.1192 9.271 14.0948 9.19074 14.0948 9.11048C14.109 8.35432 13.9523 7.60458 13.6363 6.91617C13.3701 6.35051 12.9758 5.85331 12.4841 5.46327C11.9924 5.07323 11.4164 4.80086 10.8011 4.66734C10.4758 4.59272 10.1431 4.55412 9.80918 4.55225C9.77666 4.55281 9.74423 4.54873 9.71289 4.54014C9.6862 4.53268 9.66348 4.51525 9.64951 4.49152C9.63554 4.46779 9.63141 4.43962 9.638 4.41293C9.63819 4.40027 9.64093 4.38778 9.64605 4.37618C9.65117 4.36458 9.65857 4.3541 9.66782 4.34536C9.67706 4.33662 9.68797 4.3298 9.69991 4.32528C9.71185 4.32076 9.72457 4.31864 9.73734 4.31904C9.80612 4.30996 9.87643 4.31298 9.94521 4.31298Z" fill="#815DF3"/>
<path d="M12.8956 8.41936C12.8905 7.99864 12.7859 7.58498 12.5903 7.21154C12.3947 6.8381 12.1134 6.51528 11.7692 6.26897C11.3674 5.98931 10.9003 5.81575 10.412 5.76468C10.3294 5.75408 10.2469 5.74954 10.1628 5.74045C10.0788 5.73137 10.0283 5.69654 10.036 5.61173C10.0436 5.52693 10.0971 5.49664 10.1888 5.5027C11.543 5.58448 12.6954 6.34317 13.05 7.75607C13.1148 8.0285 13.1471 8.30754 13.1463 8.58745C13.1463 8.61319 13.1463 8.63894 13.1463 8.66317C13.1463 8.73889 13.0973 8.78886 13.0225 8.78735C13.0058 8.78679 12.9895 8.78289 12.9745 8.77588C12.9595 8.76886 12.946 8.75889 12.935 8.74656C12.924 8.73423 12.9156 8.7198 12.9104 8.70416C12.9052 8.68852 12.9033 8.672 12.9048 8.6556C12.8925 8.58442 12.8956 8.51173 12.8956 8.41936Z" fill="#815DF3"/>
<path d="M10.5231 6.73315C11.2659 6.78312 11.784 7.14354 11.9261 7.92646C11.9434 8.02676 11.9556 8.12784 11.9628 8.22934C11.9628 8.31111 11.9445 8.38077 11.8543 8.38077C11.7641 8.38077 11.7335 8.3202 11.7305 8.22934C11.7296 7.92922 11.6363 7.63652 11.463 7.39038C11.2809 7.16745 11.0194 7.02219 10.7324 6.98453C10.6683 6.97264 10.6035 6.96455 10.5383 6.9603C10.4314 6.9603 10.3717 6.9073 10.3855 6.82552C10.3993 6.74375 10.4635 6.7286 10.5231 6.73315Z" fill="#815DF3"/>
</svg>
